<svg xmlns="http://www.w3.org/2000/svg" xmlns:xlink="http://www.w3.org/1999/xlink" fill="none" version="1.1" width="16" height="14.133399963378906" viewBox="0 0 16 14.133399963378906"><defs><linearGradient x1="1" y1="0.5" x2="0" y2="0.5" id="master_svg0_39_30076"><stop offset="0%" stop-color="#1742B2" stop-opacity="0.20000000298023224"/><stop offset="100%" stop-color="#009BFB" stop-opacity="1"/></linearGradient><linearGradient x1="0" y1="0.5" x2="1" y2="0.5" id="master_svg1_39_30080"><stop offset="0%" stop-color="#00E4FF" stop-opacity="1"/><stop offset="100%" stop-color="#00E4FF" stop-opacity="0"/></linearGradient></defs><path d="M0,14.1334C0,14.1334,16,7.2000299,16,7.2000299C16,7.2000299,0,0,0,0C0,0,3.5999999,7.06669,3.5999999,7.06669C3.5999999,7.06669,0,14.1334,0,14.1334Z" fill="url(#master_svg0_39_30076)" fill-opacity="1"/><path d="M0.7124908,12.734798L3.5999999,7.06669L0.72479165,1.4227439L0,0L14.76621,6.6448221L16,7.2000299L14.758588,7.737978L1.4402176,13.509302L0,14.1334L0.7124908,12.734798ZM4.7222829,7.066689L2.1808763,2.0779848L13.524797,7.1827703L2.1527081,12.110701L4.7222829,7.066689Z" fill-rule="evenodd" fill="url(#master_svg1_39_30080)" fill-opacity="1"/></svg>